HIERARCHY
ROOT hip
{
	OFFSET 0.00000 0.00000 0.00000
	CHANNELS 6 Xposition Yposition Zposition Zrotation Yrotation Xrotation 
	JOINT rightuplegdummy
	{
		OFFSET 0 0 0
		CHANNELS 3 Zrotation Yrotation Xrotation
		JOINT rightupleg
		{
			OFFSET -3.52197 -3.41223 0.04002
			CHANNELS 3 Zrotation Yrotation Xrotation
			JOINT rightleg
			{
				OFFSET 0.00006 -17.42390 1.60435
				CHANNELS 3 Zrotation Yrotation Xrotation
				JOINT rightfoot
				{
					OFFSET 0.06153 -16.50078 -1.63901
					CHANNELS 3 Zrotation Yrotation Xrotation
					JOINT righttoes
					{
						OFFSET 0.00298 -1.73825 3.34613
						CHANNELS 3 Zrotation Yrotation Xrotation
						End Site
						{
							OFFSET 0.00480 -0.05416 3.85043
						}
					}
				}
			}
		}
	}
	JOINT spinedummy
	{
		OFFSET 0 0 0
		CHANNELS 3 Zrotation Yrotation Xrotation
		JOINT spine
		{
			OFFSET 0.00000 4.68130 0.00000
			CHANNELS 3 Zrotation Yrotation Xrotation
			JOINT spine1
			{
				OFFSET -0.00000 10.10138 0.05002
				CHANNELS 3 Zrotation Yrotation Xrotation
				JOINT headdummy
				{
					OFFSET 0 0 0
					CHANNELS 3 Zrotation Yrotation Xrotation
					JOINT head
					{
						OFFSET -0.00000 3.43865 0.00438
						CHANNELS 3 Zrotation Yrotation Xrotation
						End Site
						{
							OFFSET -0.11417 5.02924 0.98962
						}
					}
				}
				JOINT leftshoulder1dummy
				{
					OFFSET 0 0 0
					CHANNELS 3 Zrotation Yrotation Xrotation
					JOINT leftshoulder1
					{
						OFFSET 3.53937 -0.14262 -0.08662
						CHANNELS 3 Zrotation Yrotation Xrotation
						JOINT leftarm
						{
							OFFSET 4.04833 -0.00133 0.12681
							CHANNELS 3 Zrotation Yrotation Xrotation
							JOINT leftforearm
							{
								OFFSET 10.33880 -0.01036 -0.55515
								CHANNELS 3 Zrotation Yrotation Xrotation
								JOINT lefthand
								{
									OFFSET 8.69677 0.07543 0.40060
									CHANNELS 3 Zrotation Yrotation Xrotation
									End Site
									{
										OFFSET 5.28377 -0.21905 0.59205
									}
								}
							}
						}
					}
				}
				JOINT rightshoulderdummy
				{
					OFFSET 0 0 0
					CHANNELS 3 Zrotation Yrotation Xrotation
					JOINT rightshoulder
					{
						OFFSET -3.53937 -0.14262 -0.08660
						CHANNELS 3 Zrotation Yrotation Xrotation
						JOINT rightarm
						{
							OFFSET -4.04833 -0.00133 0.12683
							CHANNELS 3 Zrotation Yrotation Xrotation
							JOINT rightforearm
							{
								OFFSET -10.37987 -0.01039 -0.55511
								CHANNELS 3 Zrotation Yrotation Xrotation
								JOINT righthand
								{
									OFFSET -8.67398 0.07538 0.40058
									CHANNELS 3 Zrotation Yrotation Xrotation
									End Site
									{
										OFFSET -5.24810 -0.21916 0.59204
									}
								}
							}
						}
					}
				}
			}
		}
	}
	JOINT leftuplegdummy
	{
		OFFSET 0 0 0
		CHANNELS 3 Zrotation Yrotation Xrotation
		JOINT leftupleg
		{
			OFFSET 3.52197 -3.41223 0.04002
			CHANNELS 3 Zrotation Yrotation Xrotation
			JOINT leftleg
			{
				OFFSET -0.00012 -17.42399 1.60337
				CHANNELS 3 Zrotation Yrotation Xrotation
				JOINT leftfoot
				{
					OFFSET -0.09972 -16.50070 -1.63802
					CHANNELS 3 Zrotation Yrotation Xrotation
					JOINT lefttoes
					{
						OFFSET -0.01575 -1.73823 3.34611
						CHANNELS 3 Zrotation Yrotation Xrotation
						End Site
						{
							OFFSET 0.03150 -0.01868 3.85031
						}
					}
				}
			}
		}
	}
}
MOTION
Frames: 7
Frame Time: 0.033333
-0.6559 41.2234 22.1791 175.1680 64.2102 172.4440 0.0000 -0.0000 0.0000 -19.2867 -9.7601 3.6735 2.5164 5.5257 20.6617 15.9840 -3.0402 10.3311 0.0000 0.0000 -0.0000 0.0000 -0.0000 0.0000 2.1455 2.4823 0.5199 -4.0134 3.6705 14.9143 -0.0000 -0.0000 -0.0000 -26.4504 49.4110 -22.6107 -0.0000 -0.0000 -0.0000 -17.7271 -3.4422 1.6915 -48.5695 3.9356 19.6710 1.0395 -58.7063 20.9210 7.2253 2.6046 -0.1911 -0.0000 -0.0000 -0.0000 26.4187 5.1085 2.8016 45.2855 -2.6472 14.7063 179.0067 57.0484 176.6465 -7.8299 -6.4927 0.0263 0.0000 -0.0000 0.0000 10.4959 8.4381 -4.8447 -2.2099 -4.8465 22.0605 -9.8561 2.0814 13.4077 0.0000 -0.0000 -0.0000
-0.7388 40.4544 22.4496 174.7310 64.5937 171.6120 0.0000 -0.0000 0.0000 -19.6035 -7.9377 3.1224 2.8891 5.6429 23.2299 16.2611 -2.4832 6.0589 0.0000 0.0000 -0.0000 0.0000 -0.0000 0.0000 2.3436 2.5892 2.0972 -4.5328 3.8532 14.3895 -0.0000 -0.0000 -0.0000 -27.1453 48.8789 -23.6214 -0.0000 -0.0000 -0.0000 -16.4049 -3.4190 1.6011 -48.5454 3.8680 20.8419 1.2394 -59.5913 22.6361 8.0974 2.6577 -0.2086 -0.0000 -0.0000 -0.0000 25.1700 4.9554 2.6504 42.7679 0.4201 12.5538 178.8072 55.4486 173.4545 -7.4206 -5.9392 -0.0090 0.0000 -0.0000 0.0000 10.3583 8.7419 -5.0916 -2.8012 -5.2089 25.6029 -10.3206 1.7614 8.5477 0.0000 -0.0000 -0.0000
-0.8709 39.1069 22.8454 173.7960 64.9262 170.7730 0.0000 -0.0000 0.0000 -20.2227 -7.6742 1.4270 4.2497 6.6063 28.5116 17.2435 -1.0736 -4.3760 0.0000 0.0000 -0.0000 0.0000 -0.0000 0.0000 1.0706 2.8270 3.3857 -3.8952 3.6688 13.8032 -0.0000 -0.0000 -0.0000 -28.3702 48.3156 -25.2316 -0.0000 -0.0000 -0.0000 -16.5666 -3.5252 1.6361 -47.3296 2.6589 21.0684 0.9924 -59.2555 20.2544 8.8781 2.4066 -0.2439 -0.0000 -0.0000 -0.0000 24.4871 4.8156 2.5525 38.5073 6.0245 7.5345 178.4527 56.0330 168.9638 -8.8659 -5.7961 -0.0110 0.0000 -0.0000 0.0000 10.4692 9.7110 -7.3747 -2.3942 -3.6856 31.3598 -10.2507 0.9335 -1.0214 0.0000 -0.0000 -0.0000
-1.1087 37.6566 23.3435 173.7830 64.1152 171.0370 0.0000 -0.0000 0.0000 -20.5084 -9.0112 -1.1124 6.1405 7.3968 35.2826 17.0003 0.5353 -15.3445 0.0000 0.0000 -0.0000 0.0000 -0.0000 0.0000 -0.4866 2.4578 3.9061 -2.2550 2.6759 15.2635 -0.0000 -0.0000 -0.0000 -33.1829 47.0624 -30.7278 -0.0000 -0.0000 -0.0000 -18.4761 -3.2894 1.7005 -43.7392 -2.7618 21.5447 0.5813 -55.6433 17.2800 10.0993 2.6427 -0.2560 -0.0000 -0.0000 -0.0000 25.4535 4.6885 2.5894 32.4901 15.0300 0.0320 178.0221 59.8095 165.9668 -11.4671 -6.9487 0.1074 0.0000 -0.0000 0.0000 11.3446 9.7228 -12.2479 -3.8964 -4.2393 39.8170 -10.9799 0.3184 -8.5670 0.0000 -0.0000 -0.0000
-1.2864 36.8583 23.7505 174.3540 63.2344 171.3940 0.0000 -0.0000 0.0000 -20.4623 -10.2685 -2.4699 7.4755 7.7914 39.3347 15.8252 1.1276 -19.9469 0.0000 0.0000 -0.0000 0.0000 -0.0000 0.0000 -0.1055 1.7608 4.1476 -2.5346 2.1190 17.5081 -0.0000 -0.0000 -0.0000 -36.5635 46.0207 -35.1636 -0.0000 -0.0000 -0.0000 -20.2242 -2.9685 1.7263 -41.4433 -10.5306 20.8843 0.7008 -46.0178 21.7047 11.8585 3.1106 -0.2556 -0.0000 -0.0000 -0.0000 27.9463 4.9504 2.8762 30.3771 23.3725 -5.0927 177.6425 67.0586 168.0228 -15.3348 -9.2796 0.4657 0.0000 -0.0000 0.0000 12.4264 9.4244 -14.8250 -5.6791 -5.2285 44.2033 -11.7435 0.1104 -10.9050 0.0000 -0.0000 -0.0000
-1.1927 37.2550 23.9275 173.8400 63.4926 170.5050 0.0000 -0.0000 0.0000 -20.5592 -10.3766 -1.3576 7.7839 8.6363 37.5399 16.2790 0.8847 -17.9622 0.0000 0.0000 -0.0000 0.0000 -0.0000 0.0000 1.0502 1.7797 3.9158 -4.2929 2.7652 18.1197 -0.0000 -0.0000 -0.0000 -34.9042 46.8807 -33.3623 -0.0000 -0.0000 -0.0000 -20.1085 -3.0510 1.7408 -44.7361 -14.4383 20.1222 0.8046 -34.8761 24.9807 18.5059 5.2646 -0.0377 -0.0000 -0.0000 -0.0000 29.1244 5.2711 3.0851 36.5332 25.3161 -1.8680 177.4148 72.8001 170.3575 -24.8711 -11.5819 1.3009 0.0000 -0.0000 0.0000 12.3119 9.1534 -12.2712 -4.3852 -4.7107 40.0699 -12.2631 0.1953 -10.0867 0.0000 -0.0000 -0.0000
-0.9329 38.6788 23.8959 173.0900 63.9377 169.8640 0.0000 -0.0000 0.0000 -20.2756 -9.9525 0.7896 6.5954 9.0723 31.4940 18.0629 -0.2732 -9.8554 0.0000 0.0000 -0.0000 0.0000 -0.0000 0.0000 1.3945 2.3187 3.1325 -4.3698 3.4267 17.2279 -0.0000 -0.0000 -0.0000 -32.0783 48.4310 -28.6279 -0.0000 -0.0000 -0.0000 -20.1027 -3.1914 1.7778 -48.6830 -13.1267 23.0598 0.2057 -29.2103 14.7973 24.8184 5.9930 0.1065 -0.0000 -0.0000 -0.0000 29.0502 5.3532 3.1076 42.7279 20.1431 5.5060 177.1441 72.9044 168.2405 -31.8545 -11.8201 1.7758 0.0000 -0.0000 0.0000 11.2795 7.9068 -8.1956 -1.8954 -3.0069 31.5196 -12.3310 0.9610 -2.5982 0.0000 -0.0000 -0.0000
